<svg xmlns="http://www.w3.org/2000/svg" viewBox="0 0 64 64" role="img" aria-label="隐形资助系统">
  <defs>
    <linearGradient id="g" x1="0" x2="1" y1="0" y2="1">
      <stop offset="0" stop-color="#3b82f6"/>
      <stop offset="1" stop-color="#2563eb"/>
    </linearGradient>
  </defs>
  <rect x="6" y="6" width="52" height="52" rx="14" fill="url(#g)"/>
  <path d="M32 16l14 6v12c0 9-6 16-14 20-8-4-14-11-14-20V22l14-6z" fill="#ffffff"/>
  <path d="M32 24c4 0 7 3 7 7s-3 7-7 7-7-3-7-7 3-7 7-7zm0 2.5a4.5 4.5 0 100 9 4.5 4.5 0 000-9z" fill="#1d4ed8"/>
</svg>
